<?xml version="1.0" standalone="no"?>
<!DOCTYPE svg PUBLIC "-//W3C//DTD SVG 1.1//EN" "http://www.w3.org/Graphics/SVG/1.1/DTD/svg11.dtd" >
<svg xmlns="http://www.w3.org/2000/svg">
<metadata></metadata>
<defs>
<font id="avenir_45_bookregular" horiz-adv-x="1138" >
<font-face units-per-em="2048" ascent="1638" descent="-410" />
<missing-glyph horiz-adv-x="569" />
<glyph horiz-adv-x="2048" />
<glyph horiz-adv-x="2048" />
<glyph unicode="&#xd;" horiz-adv-x="681" />
<glyph unicode=" "  horiz-adv-x="569" />
<glyph unicode="&#x09;" horiz-adv-x="569" />
<glyph unicode="&#xa0;" horiz-adv-x="569" />
<glyph unicode="!" horiz-adv-x="569" d="M174 98q0 45 32 78t79 33t78.5 -33t31.5 -78t-31.5 -77.5t-78.5 -32.5t-79 32.5t-32 77.5zM211 393v1057h147v-1057h-147z" />
<glyph unicode="&#x22;" horiz-adv-x="1062" d="M322 969v481h122v-481h-122zM618 969v481h123v-481h-123z" />
<glyph unicode="#" d="M72 438v123h225l45 332h-221v123h239l60 434h125l-60 -434h273l59 434h125l-59 -434h184v-123h-203l-45 -332h195v-123h-211l-62 -438h-125l62 438h-272l-62 -438h-125l62 438h-209zM422 561h272l45 332h-272z" />
<glyph unicode="$" d="M88 188l123 88q66 -82 153.5 -130t155.5 -46v572q-80 25 -142.5 54.5t-123.5 76.5t-95 116.5t-34 159.5q0 170 117.5 278.5t277.5 121.5v143h98v-139q229 0 379 -174l-114 -99q-41 70 -114 105t-151 33v-547q90 -33 151.5 -62.5t129.5 -81t101.5 -125t33.5 -167.5 q0 -168 -117.5 -278t-298.5 -120v-139h-98v135q-137 8 -251.5 70.5t-180.5 154.5zM272 1083q0 -96 64.5 -153.5t183.5 -100.5v517q-109 -8 -178.5 -82t-69.5 -181zM618 102q100 0 183.5 62.5t85.5 200.5q1 192 -269 278v-541z" />
<glyph unicode="%" horiz-adv-x="1705" d="M78 1116.5q0 151.5 104.5 255t256 103.5t256 -103.5t104.5 -255t-104.5 -255t-256 -103.5t-256 103.5t-104.5 255zM201 1116.5q0 -100.5 69.5 -168t168 -67.5t168 67.5t69.5 168t-69.5 168t-168 67.5t-168 -67.5t-69.5 -168zM338 -8l924 1521l104 -55l-922 -1521z M907 333.5q0 151.5 104.5 255t256 103.5t256 -103.5t104.5 -255t-104.5 -255t-256 -103.5t-256 103.5t-104.5 255zM1030 333.5q0 -100.5 69.5 -168t168 -67.5t168 67.5t69.5 168t-69.5 168t-168 67.5t-168 -67.5t-69.5 -168z" />
<glyph unicode="&#x26;" horiz-adv-x="1441" d="M98 377q0 272 330 428q-170 182 -170 340t102.5 250t260.5 92q152 0 251 -86t99 -240q0 -127 -88 -214t-232 -163l334 -344l199 344h166l-267 -448l326 -336h-209l-205 213q-96 -125 -199.5 -187.5t-242.5 -62.5q-188 0 -321.5 112.5t-133.5 301.5zM258 375 q0 -121 88 -199t209 -78q109 0 187.5 54.5t160.5 158.5l-383 402q-145 -82 -203.5 -155t-58.5 -183zM406 1139q0 -66 51 -141.5t100 -118.5q6 4 48 27.5t54.5 31.5t47 30.5t48 39t34 42t27.5 53t7 58.5q0 84 -58 137.5t-142 53.5q-92 0 -154.5 -58.5t-62.5 -154.5z" />
<glyph unicode="'" horiz-adv-x="532" d="M205 969v481h123v-481h-123z" />
<glyph unicode="(" horiz-adv-x="532" d="M111 590q0 240 77 480t220 437l108 -69q-141 -227 -205.5 -418t-64.5 -430.5t61.5 -421.5t200.5 -414l-109 -82q-137 190 -212.5 430t-75.5 488z" />
<glyph unicode=")" horiz-adv-x="532" d="M16 -258q141 227 206 417.5t65 430t-61.5 422t-200.5 413.5l108 82q137 -190 213 -429.5t76 -487.5q0 -240 -77 -480.5t-220 -437.5z" />
<glyph unicode="*" horiz-adv-x="909" d="M63 1135l43 114l287 -92v293h123v-293l287 92l43 -114l-289 -93l184 -247l-98 -74l-188 254l-189 -254l-98 74l184 247z" />
<glyph unicode="+" horiz-adv-x="1363" d="M160 559v123h461v461h122v-461h461v-123h-461v-461h-122v461h-461z" />
<glyph unicode="," horiz-adv-x="569" d="M133 -287l137 482h166l-166 -482h-137z" />
<glyph unicode="-" horiz-adv-x="681" d="M78 424v135h526v-135h-526z" />
<glyph unicode="." horiz-adv-x="569" d="M174 98q0 45 32 78t79 33t78.5 -33t31.5 -78t-31.5 -77.5t-78.5 -32.5t-79 32.5t-32 77.5z" />
<glyph unicode="/" horiz-adv-x="757" d="M10 2l621 1485l117 -41l-619 -1483z" />
<glyph unicode="0" d="M78 724.5q0 106.5 10 202t43 200t85 178t143.5 122t210 48.5t209.5 -48.5t143.5 -122t85 -178t43 -200t10.5 -202t-10.5 -201.5t-43 -199.5t-85 -178t-143.5 -122t-209.5 -48.5t-210 48.5t-143.5 122t-85 178t-43 199.5t-10 201.5zM225 725q0 -614 344 -614t344 614 t-344 614t-344 -614z" />
<glyph unicode="1" d="M213 1147l369 303h131v-1450h-148v1266l-260 -230z" />
<glyph unicode="2" d="M98 0v170l578 588q57 57 90 97t63.5 104.5t30.5 125.5q0 117 -80 185.5t-200 68.5q-109 0 -188 -61t-101 -166l-156 16q31 160 148.5 253.5t285.5 93.5q186 0 312.5 -99.5t126.5 -277.5q0 -80 -22.5 -149.5t-73 -138.5t-87.5 -110t-110 -112l-457 -453h762v-135h-922z " />
<glyph unicode="3" d="M78 268l155 47q37 -104 111 -154t203 -50q127 0 215 80.5t88 205.5q0 154 -104.5 224.5t-264.5 70.5h-63v135h76q139 0 228 65.5t89 201.5q0 117 -70.5 181t-197.5 64q-184 0 -277 -159l-129 65q127 229 402 230q178 0 298.5 -101.5t120.5 -275.5q0 -115 -70.5 -207 t-174.5 -125l6 -4q125 -27 201.5 -129.5t76.5 -239.5q0 -195 -133 -306.5t-329 -111.5q-342 0 -457 293z" />
<glyph unicode="4" d="M78 344v168l586 938h188v-971h209v-135h-209v-344h-147v344h-627zM201 479h504v824h-5z" />
<glyph unicode="5" d="M98 233l146 64q43 -86 116.5 -136t167.5 -50q137 0 232.5 94t95.5 229q0 154 -100.5 249t-255.5 95q-152 0 -301 -80l14 752h739v-135h-594l-8 -436q86 35 195 34q203 0 331 -132t128 -332q0 -209 -138.5 -341.5t-349.5 -132.5q-139 0 -249.5 67t-168.5 191z" />
<glyph unicode="6" d="M98 424q0 186 125 389l391 637h174l-395 -623l4 -4q72 49 201 49q190 0 316 -127t126 -321q0 -199 -133 -324t-337.5 -125t-338 125t-133.5 324zM246 424q0 -139 90 -226t233.5 -87t233.5 87t90 226t-90 226t-233.5 87t-233.5 -87t-90 -226z" />
<glyph unicode="7" d="M111 1315v135h860v-135l-584 -1315h-166l596 1315h-706z" />
<glyph unicode="8" d="M111 387q0 141 73.5 244.5t196.5 136.5v4q-96 33 -156.5 123t-60.5 201q0 168 118.5 273.5t286.5 105.5t287 -105.5t119 -273.5q0 -111 -60.5 -201t-156.5 -123v-4q123 -33 196.5 -136.5t73.5 -244.5q0 -182 -134 -297t-324.5 -115t-324.5 115t-134 297zM258 408 q0 -129 86 -213t225.5 -84t225.5 84t86 213t-86 213t-225.5 84t-225.5 -84t-86 -213zM311 1083.5q0 -110.5 74 -183.5t184.5 -73t184 73t73.5 183.5t-73.5 183t-184 72.5t-184.5 -72.5t-74 -183z" />
<glyph unicode="9" d="M98 1026q0 199 133.5 324t338 125t337.5 -125t133 -324q0 -186 -125 -389l-391 -637h-174l395 623l-4 4q-70 -49 -200 -49q-190 0 -316.5 126.5t-126.5 321.5zM246 1026q0 -139 90 -226t233.5 -87t233.5 87t90 226t-90 226t-233.5 87t-233.5 -87t-90 -226z" />
<glyph unicode=":" horiz-adv-x="569" d="M174 98q0 45 32 78t79 33t78.5 -33t31.5 -78t-31.5 -77.5t-78.5 -32.5t-79 32.5t-32 77.5zM174 858q0 45 32 78t79 33t78.5 -33t31.5 -78t-31.5 -77.5t-78.5 -32.5t-79 32.5t-32 77.5z" />
<glyph unicode=";" horiz-adv-x="569" d="M133 -287l137 482h166l-166 -482h-137zM193 858q0 45 31.5 78t78.5 33t79 -33t32 -78t-32 -77.5t-79 -32.5t-78.5 32.5t-31.5 77.5z" />
<glyph unicode="&#x3c;" horiz-adv-x="1363" d="M160 573v95l1044 487v-123l-878 -411l878 -412v-123z" />
<glyph unicode="=" horiz-adv-x="1363" d="M160 406v122h1044v-122h-1044zM160 713v123h1044v-123h-1044z" />
<glyph unicode="&#x3e;" horiz-adv-x="1363" d="M160 86v123l878 412l-878 411v123l1044 -487v-95z" />
<glyph unicode="?" horiz-adv-x="987" d="M96 1135q23 158 136.5 249t275.5 91q170 0 279.5 -95.5t109.5 -263.5q0 -82 -24.5 -146.5t-61.5 -102.5t-80 -78.5t-80 -74.5t-61.5 -90t-24.5 -126v-105h-147v170q2 61 35.5 117.5t83 101.5t97.5 90.5t82 104.5t34 127q0 104 -67 169.5t-173 65.5q-102 0 -172 -61 t-88 -162zM393 98q0 45 32 78t79 33t78.5 -33t31.5 -78t-31.5 -77.5t-78.5 -32.5t-79 32.5t-32 77.5z" />
<glyph unicode="@" horiz-adv-x="1638" d="M88 725q0 319 225.5 540.5t540.5 221.5q289 0 492.5 -178.5t203.5 -450.5q0 -127 -47 -238.5t-118.5 -183t-152.5 -113.5t-153 -42q-129 0 -143 120h-4q-117 -121 -256 -120q-131 0 -211 85t-80 222q0 223 136 400t343 177q176 0 234 -168h4l45 129h115l-172 -577 q-18 -63 -19 -105q0 -16 13.5 -28.5t33.5 -12.5q109 0 209 140.5t100 306.5q0 223 -175 374.5t-398 151.5q-262 0 -452.5 -196.5t-190.5 -454.5t190.5 -454.5t452.5 -196.5q154 0 295 66.5t223 181.5h129q-98 -168 -272 -263.5t-375 -95.5q-315 0 -540.5 221.5t-225.5 540.5 zM520 600q0 -86 54.5 -141.5t138.5 -55.5q125 0 221 148t96 287q0 86 -50 145t-116 59q-141 -6 -242.5 -147t-101.5 -295z" />
<glyph unicode="A" horiz-adv-x="1404" d="M0 0l631 1450h143l631 -1450h-172l-160 381h-741l-160 -381h-172zM387 516h629l-314 762z" />
<glyph unicode="B" horiz-adv-x="1290" d="M197 0v1450h432q203 0 335 -87t132 -278q0 -119 -67.5 -204.5t-188.5 -112.5v-4q154 -12 240.5 -108.5t86.5 -254.5q0 -37 -9 -78.5t-43 -102t-88 -106.5t-154.5 -80t-233.5 -34h-442zM344 135h283q170 0 275.5 68.5t105.5 206.5q0 282 -360 282h-3h-301v-557zM344 815 h297q121 0 208 62.5t87 191.5q0 31 -10.5 64.5t-39 78.5t-96 74t-163.5 29h-283v-500z" />
<glyph unicode="C" horiz-adv-x="1441" d="M98 725q0 330 215 546t541 216q143 0 277.5 -57.5t224.5 -172.5l-129 -96q-45 74 -153.5 132.5t-219.5 58.5q-270 0 -433 -183.5t-163 -443.5t163 -443.5t433 -183.5q275 0 416 217l121 -86q-76 -117 -219.5 -191.5t-317.5 -74.5q-326 0 -541 216t-215 546z" />
<glyph unicode="D" horiz-adv-x="1517" d="M176 0v1450h481q139 0 272.5 -46t244 -133t178 -229.5t67.5 -316.5t-67.5 -316.5t-178 -229.5t-243.5 -133t-273 -46h-481zM324 135h286q160 0 287 49t205 133t118 188.5t40 219.5t-40 219.5t-118 188.5t-205 133t-287 49h-286v-1180z" />
<glyph unicode="E" horiz-adv-x="1214" d="M197 0v1450h899v-135h-752v-494h703v-135h-703v-551h776v-135h-923z" />
<glyph unicode="F" d="M197 0v1450h874v-135h-727v-494h676v-135h-676v-686h-147z" />
<glyph unicode="G" horiz-adv-x="1593" d="M98 725q0 330 215 546t541 216q329 0 524 -195l-110 -108q-158 168 -414 168q-270 0 -433 -183.5t-163 -443.5t163 -443.5t433 -183.5q221 0 401 103v485h-346v135h494v-710q-248 -147 -549 -148q-326 0 -541 216t-215 546z" />
<glyph unicode="H" horiz-adv-x="1478" d="M197 0v1450h147v-629h791v629h147v-1450h-147v686h-791v-686h-147z" />
<glyph unicode="I" horiz-adv-x="540" d="M197 0v1450h147v-1450h-147z" />
<glyph unicode="J" horiz-adv-x="987" d="M29 266l149 31q43 -199 230 -199q256 0 256 361v991h147v-1053q0 -78 -20.5 -150.5t-65.5 -138t-128 -105.5t-194 -40q-152 0 -250.5 78t-123.5 225z" />
<glyph unicode="K" horiz-adv-x="1290" d="M197 0v1450h147v-629h21l682 629h210l-731 -657l772 -793h-217l-712 748h-25v-748h-147z" />
<glyph unicode="L" horiz-adv-x="1024" d="M197 0v1450h147v-1315h676v-135h-823z" />
<glyph unicode="M" horiz-adv-x="1822" d="M197 0v1450h225l489 -1180l490 1180h225v-1450h-147v1253h-4l-525 -1253h-78l-524 1253h-4v-1253h-147z" />
<glyph unicode="N" horiz-adv-x="1593" d="M197 0v1450h184l864 -1229h4v1229h148v-1450h-185l-864 1241h-4v-1241h-147z" />
<glyph unicode="O" horiz-adv-x="1708" d="M98 725q0 330 215 546t541 216t541 -216t215 -546t-215 -546t-541 -216t-541 216t-215 546zM258 725q0 -260 163 -443.5t433 -183.5t433 183.5t163 443.5t-163 443.5t-433 183.5t-433 -183.5t-163 -443.5z" />
<glyph unicode="P" horiz-adv-x="1175" d="M197 0v1450h421q225 0 351.5 -98.5t126.5 -288.5q0 -193 -126 -291t-352 -98h-274v-674h-147zM344 809h238q186 0 270 69.5t84 184.5t-84 183.5t-270 68.5h-238v-506z" />
<glyph unicode="Q" horiz-adv-x="1708" d="M98 743.5q0 321.5 209 532.5t524 211q313 0 522.5 -211t209.5 -533q0 -424 -340 -604v-4h438v-135h-830q-315 0 -524 211t-209 532.5zM258 743.5q0 -251.5 156.5 -430t416.5 -178.5q258 0 415 178.5t157 430t-156.5 430t-415.5 178.5q-260 0 -416.5 -178.5t-156.5 -430z " />
<glyph unicode="R" horiz-adv-x="1214" d="M197 0v1450h446q225 0 351 -98.5t126 -288.5q0 -154 -98 -257.5t-272 -117.5l417 -688h-180l-397 674h-246v-674h-147zM344 809h262q186 0 270.5 69.5t84.5 184.5t-84 183.5t-271 68.5h-262v-506z" />
<glyph unicode="S" d="M102 178l134 96q102 -176 329 -176q119 0 215.5 72t96.5 192q0 96 -55.5 159t-137.5 90.5t-179 62.5t-179 71.5t-137.5 120.5t-55.5 209q0 199 138.5 305.5t330.5 106.5q256 0 410 -176l-129 -101q-96 141 -281 142q-125 0 -217 -67.5t-92 -194.5q0 -106 76.5 -171 t185.5 -99t218.5 -73.5t186 -130t76.5 -233.5q0 -188 -146.5 -304t-330.5 -116q-299 0 -457 215z" />
<glyph unicode="T" horiz-adv-x="1175" d="M29 1315v135h1118v-135h-485v-1315h-148v1315h-485z" />
<glyph unicode="U" horiz-adv-x="1404" d="M172 541v909h147v-893q0 -119 30 -208t72 -135t99.5 -73.5t98 -35t83.5 -7.5t84 7.5t98.5 35t99.5 73.5t71.5 135t29.5 208v893h148v-909q0 -80 -13.5 -154t-49 -153.5t-93 -137t-154 -95.5t-221 -38t-221 38t-154 95.5t-93 137t-49 153.5t-13.5 154z" />
<glyph unicode="V" horiz-adv-x="1251" d="M-6 1450h164l460 -1229h5l475 1229h159l-565 -1450h-147z" />
<glyph unicode="W" horiz-adv-x="1933" d="M0 1450h164l348 -1241h4l365 1241h176l364 -1241h4l344 1241h164l-428 -1450h-172l-364 1241h-4l-365 -1241h-172z" />
<glyph unicode="X" horiz-adv-x="1290" d="M12 0l531 762l-490 688h199l395 -580l406 580h184l-492 -688l533 -762h-195l-442 657l-444 -657h-185z" />
<glyph unicode="Y" horiz-adv-x="1175" d="M-29 1450h185l432 -684l432 684h184l-542 -825v-625h-148v625z" />
<glyph unicode="Z" d="M47 0v123l848 1192h-836v135h1020v-123l-846 -1192h859v-135h-1045z" />
<glyph unicode="[" horiz-adv-x="532" d="M133 -319v1818h332v-110h-197v-1598h197v-110h-332z" />
<glyph unicode="\" horiz-adv-x="757" d="M10 1446l117 41l621 -1485l-119 -39z" />
<glyph unicode="]" horiz-adv-x="532" d="M68 -209h196v1598h-196v110h331v-1818h-331v110z" />
<glyph unicode="^" horiz-adv-x="1363" d="M164 563l469 887h98l469 -887h-127l-391 740l-391 -740h-127z" />
<glyph unicode="_" horiz-adv-x="1024" d="M0 -154h1024v-102h-1024v102z" />
<glyph unicode="`" horiz-adv-x="491" d="M-20 1450h186l205 -295h-121z" />
<glyph unicode="a" horiz-adv-x="1062" d="M98 256q0 76 27 133t78 92t106.5 57.5t130 33t129.5 13.5t125 3h68v24q0 248 -246 248q-168 0 -293 -112l-82 96q135 139 406 139q152 0 251 -87t99 -253v-428q0 -113 16 -215h-131q-12 70 -12 156h-4q-111 -180 -338 -181q-137 0 -233.5 74t-96.5 207zM246 274 q0 -88 66.5 -132t158.5 -44q141 0 216 87t75 223v69h-70q-446 0 -446 -203z" />
<glyph unicode="b" horiz-adv-x="1251" d="M147 0v1548h136v-749h4q61 90 164.5 137t207.5 47q223 0 366.5 -143.5t143.5 -360.5t-143 -360.5t-367 -143.5q-104 0 -207.5 47.5t-164.5 137.5h-4v-160h-136zM276 479q0 -162 109 -271.5t274 -109.5q164 0 263.5 108.5t99.5 272.5t-99.5 272.5t-263.5 108.5 q-166 0 -274.5 -109.5t-108.5 -271.5z" />
<glyph unicode="c" horiz-adv-x="987" d="M98 479q0 221 138 363q137 141 364 141h6q211 -4 350 -166l-110 -84q-35 55 -99.5 91t-140.5 36h-6q-160 0 -256 -106q-98 -108 -98 -276q0 -166 98 -274q96 -106 256 -106h6q76 0 140.5 36t99.5 91l110 -84q-139 -162 -350 -166h-6q-228 1 -364 141q-138 142 -138 363z " />
<glyph unicode="d" horiz-adv-x="1251" d="M82 479q0 217 143.5 360.5t366.5 143.5q104 0 207.5 -47t165.5 -137h4v749h135v-1548h-135v160h-4q-61 -90 -165 -137.5t-208 -47.5q-223 0 -366.5 143.5t-143.5 360.5zM229 479q0 -164 99.5 -272.5t263.5 -108.5q166 0 274.5 109.5t108.5 271.5t-108.5 271.5 t-274.5 109.5q-164 0 -263.5 -108.5t-99.5 -272.5z" />
<glyph unicode="e" d="M98 479q0 215 139.5 359.5t344.5 144.5q211 -2 334.5 -138t123.5 -341v-62h-798q12 -145 111.5 -244.5t240.5 -99.5q100 0 182 48.5t125 117.5l105 -86q-160 -203 -412 -203q-213 0 -354.5 143.5t-141.5 360.5zM246 553h647q0 139 -84 223t-227 84q-131 0 -233.5 -94 t-102.5 -213z" />
<glyph unicode="f" horiz-adv-x="606" d="M29 836v122h202v263q0 352 322 352q49 0 117 -14l-25 -123q-57 14 -104 14q-102 0 -138 -62.5t-36 -183.5v-246h227v-122h-227v-836h-136v836h-202z" />
<glyph unicode="g" horiz-adv-x="1251" d="M98 487q0 211 138.5 353.5t349.5 142.5q233 0 370 -184h5v159h135v-950q0 -70 -11.5 -133t-46 -132t-89 -119t-149.5 -83t-218 -33q-281 0 -461 193l100 106q61 -82 157.5 -129t209.5 -47q195 0 284 103.5t89 273.5v172h-5q-121 -180 -358 -180q-209 0 -354.5 139.5 t-145.5 347.5zM246 491.5q0 -151.5 103.5 -260t252.5 -108.5q154 0 262 103q101 99 101 249v17q0 156 -99.5 262t-263.5 106q-150 0 -253 -108.5t-103 -260z" />
<glyph unicode="h" d="M147 0v1548h136v-743h4q45 78 135 128t186 50q180 0 270.5 -97.5t90.5 -277.5v-608h-135v530q0 168 -57.5 249t-203.5 81q-16 0 -41.5 -4t-72.5 -25.5t-83 -57.5t-64.5 -109.5t-28.5 -171.5v-492h-136z" />
<glyph unicode="i" horiz-adv-x="491" d="M147 1327q0 41 30 69.5t69 28.5t68.5 -28.5t29.5 -69.5t-29.5 -69.5t-68.5 -28.5t-69 28.5t-30 69.5zM178 0v958h135v-958h-135z" />
<glyph unicode="j" horiz-adv-x="491" d="M-63 -471l18 117l6 -2q45 -12 72 -13q88 0 116.5 55.5t28.5 145.5v1126h135v-1148v-9v-8q0 -285 -270 -285q-57 1 -106 21zM147 1327q0 41 30 69.5t69 28.5t68.5 -28.5t29.5 -69.5t-29.5 -69.5t-68.5 -28.5t-69 28.5t-30 69.5z" />
<glyph unicode="k" horiz-adv-x="987" d="M147 0v1548h136v-1022l452 432h203l-477 -438l528 -520h-209l-497 504v-504h-136z" />
<glyph unicode="l" horiz-adv-x="491" d="M178 0v1548h135v-1548h-135z" />
<glyph unicode="m" horiz-adv-x="1744" d="M137 958h146v-145h4q47 80 133 125t176 45q227 0 305 -199q41 90 129 144.5t187 54.5q180 0 270 -97.5t90 -277.5v-608h-135v559q0 154 -53.5 227.5t-188.5 73.5q-139 0 -204.5 -100.5t-65.5 -249.5v-510h-135v559q0 154 -53.5 227.5t-188.5 73.5q-18 0 -42 -4t-67 -25.5 t-76.5 -57.5t-59 -109.5t-25.5 -171.5v-492h-136v745q0 33 -10 213z" />
<glyph unicode="n" d="M137 958h139q6 -51 7 -153h4q45 78 135 128t186 50q180 0 270.5 -97.5t90.5 -277.5v-608h-135v530q0 168 -57.5 249t-203.5 81q-16 0 -41.5 -4t-72.5 -25.5t-83 -57.5t-64.5 -109.5t-28.5 -171.5v-492h-136v748q0 36 -10 210z" />
<glyph unicode="o" horiz-adv-x="1214" d="M98 479q0 217 143.5 360.5t364.5 143.5q223 0 366.5 -143.5t143.5 -360.5t-143.5 -360.5t-366.5 -143.5q-221 0 -364.5 143.5t-143.5 360.5zM246 479q0 -164 99 -272.5t261 -108.5q164 0 263.5 108.5t99.5 272.5t-99.5 272.5t-263.5 108.5q-162 0 -261 -108.5t-99 -272.5 z" />
<glyph unicode="p" horiz-adv-x="1251" d="M147 -590v1548h136v-159h4q61 90 164.5 137t207.5 47q223 0 366.5 -143.5t143.5 -360.5t-143 -360.5t-367 -143.5q-104 0 -207.5 47.5t-164.5 137.5h-4v-750h-136zM276 479q0 -162 109 -271.5t274 -109.5q164 0 263.5 108.5t99.5 272.5t-99.5 272.5t-263.5 108.5 q-166 0 -274.5 -109.5t-108.5 -271.5z" />
<glyph unicode="q" horiz-adv-x="1251" d="M82 479q0 217 143.5 360.5t366.5 143.5q104 0 207.5 -47t165.5 -137h4v159h135v-1548h-135v750h-4q-61 -90 -165 -137.5t-208 -47.5q-223 0 -366.5 143.5t-143.5 360.5zM229 479q0 -164 99.5 -272.5t263.5 -108.5q166 0 274.5 109.5t108.5 271.5t-108.5 271.5 t-274.5 109.5q-164 0 -263.5 -108.5t-99.5 -272.5z" />
<glyph unicode="r" horiz-adv-x="679" d="M154 958h133v-178h4q33 86 111.5 144.5t195.5 58.5q57 0 100 -12l-26 -133q-27 10 -78 10q-141 0 -219 -97.5t-78 -209.5v-541h-135v659q0 20 -8 299z" />
<glyph unicode="s" horiz-adv-x="872" d="M68 162l116 80q92 -143 252 -144q92 0 159 41t67 119q0 66 -47.5 98.5t-135.5 55.5l-131 30q-246 61 -246 252q0 141 103.5 215t251.5 74q235 0 319 -172l-121 -80q-68 129 -206 129q-80 0 -139.5 -36t-59.5 -107q0 -63 44 -96t144 -56l137 -33q102 -25 168 -94t66 -168 q0 -147 -108.5 -221t-264.5 -74q-244 0 -368 187z" />
<glyph unicode="t" horiz-adv-x="679" d="M29 836v122h202v271h136v-271h276v-122h-276v-566q0 -100 34.5 -136t104.5 -36q72 0 139 37l6 -125q-76 -35 -182 -35q-96 0 -167 57.5t-71 198.5v605h-202z" />
<glyph unicode="u" d="M147 350v608h136v-530q0 -168 57 -249t203 -81q16 0 41.5 4t73 26t83 57.5t64.5 109.5t29 172v491h135v-747q0 -37 10 -211h-139q-6 51 -6 154h-5q-45 -78 -135 -128.5t-186 -50.5q-180 0 -270.5 97.5t-90.5 277.5z" />
<glyph unicode="v" horiz-adv-x="987" d="M29 958h161l306 -806h4l305 806h153l-389 -958h-151z" />
<glyph unicode="w" horiz-adv-x="1478" d="M29 958h159l222 -778h4l256 778h139l256 -778h4l221 778h160l-303 -958h-152l-254 786h-4l-254 -786h-151z" />
<glyph unicode="x" horiz-adv-x="987" d="M0 0l395 512l-348 446h184l267 -358l254 358h168l-334 -446l401 -512h-184l-322 420l-309 -420h-172z" />
<glyph unicode="y" horiz-adv-x="987" d="M33 958h170l301 -792l293 792h164l-480 -1208q-47 -121 -115.5 -181.5t-185.5 -60.5q-78 0 -125 15l15 131q43 -23 102 -23q68 0 110 43t74 129l70 185z" />
<glyph unicode="z" horiz-adv-x="872" d="M47 0v98l561 738h-532v122h729v-98l-561 -737h581v-123h-778z" />
<glyph unicode="{" horiz-adv-x="532" d="M25 528v123q74 0 128 62.5t54 165.5v364q0 135 61.5 195.5t159.5 60.5h131v-123h-115q-35 0 -57 -14t-31.5 -43t-11.5 -51.5t-2 -61.5v-352q0 -129 -62.5 -191.5t-119.5 -70.5v-4q57 -8 119.5 -70.5t62.5 -191.5v-353q0 -39 2 -61.5t11.5 -51t32 -43t56.5 -14.5h115v-122 h-131q-98 0 -159.5 60t-61.5 196v364q0 102 -54 164.5t-128 62.5z" />
<glyph unicode="|" horiz-adv-x="454" d="M166 -512v2048h123v-2048h-123z" />
<glyph unicode="}" horiz-adv-x="532" d="M-27 -197h115q35 0 57.5 14.5t31.5 43t11 51t2 61.5v353q0 129 62.5 191.5t120.5 70.5v4q-57 8 -120 70.5t-63 191.5v352q0 39 -2 61.5t-11 51.5t-31.5 43t-57.5 14h-115v123h131q98 0 160 -60.5t62 -195.5v-364q0 -102 54 -165t128 -63v-123q-74 0 -128 -62.5 t-54 -164.5v-364q0 -135 -61.5 -195.5t-160.5 -60.5h-131v122z" />
<glyph unicode="~" horiz-adv-x="1363" d="M182 569q39 55 71 90t89 68t119 33q68 0 104.5 -9.5t108.5 -50.5q14 -8 50 -29.5t57.5 -32.5t53 -22.5t58.5 -11.5q103 0 203 150l86 -82q-39 -55 -71 -90t-89 -68t-119 -33q-68 0 -104.5 9.5t-108.5 50.5q-14 8 -50 29.5t-57.5 32.5t-53 22.5t-58.5 11.5 q-102 0 -203 -150z" />
<glyph unicode="&#xa1;" horiz-adv-x="569" d="M174 885q0 45 32 77.5t79 32.5t78.5 -32.5t31.5 -77.5t-31.5 -78t-78.5 -33t-79 33t-32 78zM211 -467v1057h147v-1057h-147z" />
<glyph unicode="&#xa2;" d="M160 479.5q0 200.5 115.5 338.5t314.5 159v129h98v-125q201 -10 330 -164l-111 -84q-33 51 -90 86t-129 39v-758q72 4 129 39t90 86l111 -84q-129 -154 -330 -164v-124h-98v129q-199 20 -314.5 158.5t-115.5 339zM307 479.5q0 -145.5 76 -249t207 -126.5v750 q-131 -23 -207 -126t-76 -248.5z" />
<glyph unicode="&#xa3;" d="M172 0v123h209v563h-197v123h197v178q0 487 434 488q201 0 318 -123l-97 -105q-94 104 -227 105q-281 0 -281 -377v-166h344v-123h-344v-563h519v-123h-875z" />
<glyph unicode="&#xa4;" d="M63 305l109 109q-111 141 -109 311q-2 170 109 311l-109 109l91 90l108 -109q141 109 307 109t308 -109l108 109l90 -90l-108 -109q111 -141 108 -311q2 -170 -108 -311l108 -109l-90 -90l-108 109q-141 -109 -307.5 -109t-307.5 109l-108 -109zM199 725 q0 -160 108.5 -273.5t263.5 -113.5q154 0 261.5 113.5t107.5 273.5t-107.5 273.5t-261.5 113.5q-156 0 -264 -113.5t-108 -273.5z" />
<glyph unicode="&#xa5;" d="M-4 1450h174l399 -696l400 696h174l-418 -700h252v-111h-320l-14 -25v-157h334v-111h-334v-346h-147v346h-334v111h334v157l-15 25h-319v111h254z" />
<glyph unicode="&#xa6;" horiz-adv-x="454" d="M166 358h123v-716h-123v716zM166 666v716h123v-716h-123z" />
<glyph unicode="&#xa7;" d="M127 -49l135 65q33 -90 105.5 -134t164.5 -44q96 0 167 50.5t71 159t-143 179.5l-281 138q-184 88 -184 266q0 180 213 274q-35 23 -50.5 35t-47 44t-46 74t-14.5 93q0 152 103.5 238t254.5 86q131 0 225.5 -54.5t127.5 -138.5l-121 -61q-66 131 -221 131 q-66 0 -113 -21.5t-68.5 -54.5t-30.5 -59.5t-9 -49.5q0 -68 42 -109.5t123 -84.5l226 -115q199 -102 198 -285q0 -172 -178 -268q78 -53 110 -111.5t32 -144.5q0 -162 -112 -248t-274 -86q-141 0 -249.5 59.5t-155.5 176.5zM309 641q0 -20 6.5 -40.5t14.5 -35t25.5 -30 t27.5 -24.5t34.5 -23.5t34 -18.5t38 -17.5t32.5 -15.5l135 -65q59 25 104.5 75t45.5 107q0 80 -53.5 130t-141.5 91l-116 53l-35 -14q-152 -63 -152 -172z" />
<glyph unicode="&#xa8;" horiz-adv-x="491" d="M-55 1325q0 41 29.5 73t74.5 32t75 -32t30 -73t-30 -72.5t-75 -31.5t-74.5 31.5t-29.5 72.5zM338 1325q0 41 29.5 73t74.5 32t75 -32t30 -73t-30 -72.5t-75 -31.5t-74.5 31.5t-29.5 72.5z" />
<glyph unicode="&#xa9;" horiz-adv-x="1638" d="M51 721q0 326 225.5 546t543 220t542.5 -219t225 -539q0 -326 -225 -546t-542.5 -220t-543 219.5t-225.5 538.5zM174 721q0 -272 187.5 -459.5t458 -187.5t457.5 188.5t187 466.5q0 274 -187 460.5t-457.5 186.5t-458 -188t-187.5 -467zM393 725q0 207 122 336t329 129 q152 0 259 -81t128 -230h-115q-16 88 -91 144t-179 56q-152 0 -241 -99t-89 -251q0 -145 94.5 -252.5t239.5 -107.5q102 0 176 59.5t90 149.5h117q-33 -147 -137.5 -233.5t-245.5 -86.5q-205 0 -331 132t-126 335z" />
<glyph unicode="&#xaa;" horiz-adv-x="690" d="M63 1038q0 100 82 152.5t277 52.5h45v17q0 117 -131 116q-104 0 -182 -61l-66 76q88 84 244 84q137 0 197.5 -58.5t60.5 -126.5v-280q0 -43 10 -129h-111l-6 73h-2q-59 -86 -202 -86q-90 0 -153 44t-63 126zM186 1044q0 -37 36 -57t85 -20q160 0 160 178h-27 q-254 0 -254 -101z" />
<glyph unicode="&#xab;" horiz-adv-x="987" d="M106 492l287 428l96 -68l-235 -360l235 -361l-96 -68zM479 492l287 428l96 -68l-235 -360l235 -361l-96 -68z" />
<glyph unicode="&#xac;" horiz-adv-x="1363" d="M160 713v123h1044v-570h-123v447h-921z" />
<glyph unicode="&#xad;" horiz-adv-x="681" d="M78 424v135h526v-135h-526z" />
<glyph unicode="&#xae;" horiz-adv-x="1638" d="M51 721q0 326 225.5 546t543 220t542.5 -219t225 -539q0 -326 -225 -546t-542.5 -220t-543 219.5t-225.5 538.5zM174 721q0 -272 187.5 -459.5t458 -187.5t457.5 188.5t187 466.5q0 274 -187 460.5t-457.5 186.5t-458 -188t-187.5 -467zM535 279v882h323 q160 0 235.5 -61.5t75.5 -192.5q0 -113 -63.5 -170t-169.5 -69l254 -389h-133l-242 378h-158v-378h-122zM657 768h152q57 0 91 3t72 16.5t56.5 45t18.5 80.5q0 43 -16.5 73t-48.5 43t-62.5 17.5t-71.5 4.5h-191v-283z" />
<glyph unicode="&#xaf;" horiz-adv-x="491" d="M-31 1229v110h553v-110h-553z" />
<glyph unicode="&#xb0;" horiz-adv-x="819" d="M104 1169.5q0 133.5 87.5 219.5t218.5 86t218 -86t87 -219.5t-87 -219.5t-218 -86t-218.5 86t-87.5 219.5zM203 1169q0 -86 60.5 -146t146.5 -60t146 60t60 146t-60 146.5t-146 60.5t-146.5 -60.5t-60.5 -146.5z" />
<glyph unicode="&#xb1;" horiz-adv-x="1363" d="M160 98v123h1044v-123h-1044zM160 711v123h461v319h122v-319h461v-123h-461v-310h-122v310h-461z" />
<glyph unicode="&#xb2;" horiz-adv-x="739" d="M70 592v117l350 335q119 115 119 197q0 49 -49.5 86t-106.5 37q-66 0 -115 -33t-65 -82l-115 19q20 98 99 152.5t190 54.5q121 0 203 -59.5t82 -166.5q0 -61 -32 -121.5t-63.5 -94.5t-95.5 -91l-266 -240h465v-110h-600z" />
<glyph unicode="&#xb3;" horiz-adv-x="739" d="M70 756l106 61q27 -66 73 -96.5t128 -30.5q61 0 115.5 45t54.5 96q0 61 -49 109.5t-172 48.5h-60v111h49q88 0 146.5 35.5t58.5 101.5q0 55 -42 91t-105 36q-59 0 -98 -20.5t-78 -73.5l-97 67q94 137 271 138q115 0 193.5 -60.5t78.5 -165.5q0 -70 -47 -125t-121 -77v-5 q92 -14 143.5 -72.5t51.5 -140.5q0 -117 -86 -183t-215 -66q-223 0 -299 176z" />
<glyph unicode="&#xb4;" horiz-adv-x="491" d="M121 1155l205 295h186l-270 -295h-121z" />
<glyph unicode="&#xb5;" d="M147 -467v1425h136v-530q0 -180 57 -255t203 -75q127 0 209 98.5t82 270.5v491h135v-747q0 -37 10 -211h-145v156h-5q-45 -74 -137 -127.5t-184 -53.5q-141 0 -225 60v-502h-136z" />
<glyph unicode="&#xb6;" horiz-adv-x="1228" d="M98 1028q0 199 125 310.5t342 111.5h486v-1708h-136v1597h-253v-1597h-136v905q-186 0 -307 109.5t-121 271.5z" />
<glyph unicode="&#xb7;" horiz-adv-x="569" d="M174 643q0 45 32 78t79 33t78.5 -33t31.5 -78t-31.5 -78t-78.5 -33t-79 33t-32 78z" />
<glyph unicode="&#xb8;" horiz-adv-x="491" d="M29 -395l32 73q72 -37 152 -36q51 0 89 22.5t38 69.5q0 29 -22.5 55.5t-77.5 26.5q-45 0 -95 -23l-36 35l127 172h83l-92 -123l4 -2q39 14 74 14q66 0 112 -42t46 -111q0 -88 -70.5 -134t-165.5 -46q-106 0 -198 49z" />
<glyph unicode="&#xb9;" horiz-adv-x="739" d="M111 1280l239 182h111v-870h-123v747l-168 -137z" />
<glyph unicode="&#xba;" horiz-adv-x="788" d="M63 1169q0 133 93.5 219.5t236.5 86.5q145 0 238.5 -86.5t93.5 -219.5q0 -129 -93 -215t-239 -86q-143 0 -236.5 86t-93.5 215zM186 1169q0 -84 58.5 -143t148.5 -59t149.5 59t59.5 143q0 86 -59.5 146.5t-149.5 60.5t-148.5 -60.5t-58.5 -146.5z" />
<glyph unicode="&#xbb;" horiz-adv-x="987" d="M125 131l235 361l-235 360l96 68l287 -428l-287 -429zM498 131l235 361l-235 360l96 68l287 -428l-287 -429z" />
<glyph unicode="&#xbc;" horiz-adv-x="1708" d="M131 1280l240 182h110v-870h-123v747l-168 -137zM313 0l924 1516l104 -64l-921 -1518zM938 193v126l367 551h149v-567h123v-110h-123v-193h-123v193h-393zM1049 303h282v445h-4z" />
<glyph unicode="&#xbd;" horiz-adv-x="1708" d="M80 1280l239 182h111v-870h-123v747l-168 -137zM262 0l924 1516l104 -64l-921 -1518zM1028 0v117l350 336q119 115 119 196q0 49 -49 86t-107 37q-66 0 -114.5 -32.5t-65.5 -82.5l-114 19q20 98 99 152.5t189 54.5q121 0 203 -59.5t82 -166.5q0 -61 -32 -121.5t-63.5 -94 t-94.5 -91.5l-267 -239h465v-111h-600z" />
<glyph unicode="&#xbe;" horiz-adv-x="1708" d="M90 756l105 61q27 -66 72.5 -96.5t127.5 -30.5q61 0 115.5 45t54.5 96q0 61 -49 109.5t-172 48.5h-59v111h49q88 0 146.5 37t58.5 108q0 49 -42 84t-106 35q-59 0 -98 -20.5t-78 -73.5l-96 67q94 137 270 138q115 0 194 -60.5t79 -165.5q0 -70 -47.5 -125t-120.5 -77v-5 q92 -14 143 -72.5t51 -140.5q0 -117 -86 -183t-215 -66q-223 0 -297 176zM395 0l924 1516l104 -64l-921 -1518zM979 193v126l367 551h149v-567h123v-110h-123v-193h-123v193h-393zM1090 303h282v445h-4z" />
<glyph unicode="&#xbf;" horiz-adv-x="987" d="M90 -133q0 82 24.5 146.5t61.5 102.5t80 79t80 74.5t61.5 89.5t24.5 126v105h147v-170q-2 -61 -35.5 -117.5t-83 -101.5t-97.5 -90t-81.5 -104.5t-33.5 -127.5q0 -104 66.5 -169.5t172.5 -65.5q102 0 172 61.5t88 161.5l154 -19q-23 -158 -136.5 -249t-275.5 -91 q-170 0 -279.5 95.5t-109.5 263.5zM373 885q0 45 31.5 77.5t78.5 32.5t79 -32.5t32 -77.5t-32 -78t-79 -33t-78.5 33t-31.5 78z" />
<glyph unicode="&#xc0;" horiz-adv-x="1404" d="M0 0l631 1450h143l631 -1450h-172l-160 381h-741l-160 -381h-172zM387 516h629l-314 762zM436 1808h187l204 -295h-120z" />
<glyph unicode="&#xc1;" horiz-adv-x="1404" d="M0 0l631 1450h143l631 -1450h-172l-160 381h-741l-160 -381h-172zM387 516h629l-314 762zM578 1513l204 295h187l-271 -295h-120z" />
<glyph unicode="&#xc2;" horiz-adv-x="1404" d="M0 0l631 1450h143l631 -1450h-172l-160 381h-741l-160 -381h-172zM387 516h629l-314 762zM397 1513l224 295h163l224 -295h-136l-170 222l-170 -222h-135z" />
<glyph unicode="&#xc3;" horiz-adv-x="1404" d="M0 0l631 1450h143l631 -1450h-172l-160 381h-741l-160 -381h-172zM371 1538q37 213 188 213q55 0 150 -47q102 -47 137 -47q76 0 100 102h88q-37 -213 -188 -213q-47 0 -150 47q-90 47 -137 47q-75 0 -100 -102h-88zM387 516h629l-314 762z" />
<glyph unicode="&#xc4;" horiz-adv-x="1404" d="M0 0l631 1450h143l631 -1450h-172l-160 381h-741l-160 -381h-172zM387 516h629l-314 762zM401 1683q0 41 30 73t75 32t74.5 -32t29.5 -73t-29.5 -72.5t-74.5 -31.5t-75 31.5t-30 72.5zM795 1683q0 41 29.5 73t74.5 32t75 -32t30 -73t-30 -72.5t-75 -31.5t-74.5 31.5 t-29.5 72.5z" />
<glyph unicode="&#xc5;" horiz-adv-x="1404" d="M0 0l631 1450h143l631 -1450h-172l-160 381h-741l-160 -381h-172zM387 516h629l-314 762zM506 1690q0 82 58.5 138t138 56t138 -56t58.5 -138t-58.5 -138.5t-138 -56.5t-138 56.5t-58.5 138.5zM580 1689.5q0 -51.5 35.5 -86t87 -34.5t87 34.5t35.5 86t-35.5 86t-87 34.5 t-87 -34.5t-35.5 -86z" />
<glyph unicode="&#xc6;" horiz-adv-x="1933" d="M0 0l944 1450h852v-135h-602v-494h565v-135h-565v-551h627v-135h-774v406h-611l-262 -406h-174zM522 541h525v774h-23z" />
<glyph unicode="&#xc7;" horiz-adv-x="1441" d="M98 725q0 330 215 546t541 216q143 0 277.5 -57.5t224.5 -172.5l-129 -96q-45 74 -153.5 132.5t-219.5 58.5q-270 0 -433 -183.5t-163 -443.5t163 -443.5t433 -183.5q275 0 416 217l121 -86q-76 -117 -219.5 -191.5t-317.5 -74.5q-29 0 -43 4l-68 -90l5 -2q39 14 73 14 q66 0 112 -42t46 -111q0 -88 -70.5 -134t-165.5 -46q-106 0 -198 49l33 73q70 -37 151 -36q51 0 89 22.5t38 69.5q0 29 -22.5 55.5t-77.5 26.5q-45 0 -94 -23l-37 35l106 145q-281 41 -457 249t-176 503z" />
<glyph unicode="&#xc8;" horiz-adv-x="1214" d="M197 0v1450h899v-135h-752v-494h703v-135h-703v-551h776v-135h-923zM342 1808h186l205 -295h-121z" />
<glyph unicode="&#xc9;" horiz-adv-x="1214" d="M197 0v1450h899v-135h-752v-494h703v-135h-703v-551h776v-135h-923zM483 1513l205 295h186l-270 -295h-121z" />
<glyph unicode="&#xca;" horiz-adv-x="1214" d="M197 0v1450h899v-135h-752v-494h703v-135h-703v-551h776v-135h-923zM303 1513l223 295h164l223 -295h-135l-170 222l-170 -222h-135z" />
<glyph unicode="&#xcb;" horiz-adv-x="1214" d="M197 0v1450h899v-135h-752v-494h703v-135h-703v-551h776v-135h-923zM307 1683q0 41 30 73t75 32t74.5 -32t29.5 -73t-29.5 -72.5t-74.5 -31.5t-75 31.5t-30 72.5zM700 1683q0 41 30 73t75 32t74.5 -32t29.5 -73t-29.5 -72.5t-74.5 -31.5t-75 31.5t-30 72.5z" />
<glyph unicode="&#xcc;" horiz-adv-x="540" d="M4 1808h186l205 -295h-121zM197 0v1450h147v-1450h-147z" />
<glyph unicode="&#xcd;" horiz-adv-x="540" d="M145 1513l205 295h187l-271 -295h-121zM197 0v1450h147v-1450h-147z" />
<glyph unicode="&#xce;" horiz-adv-x="540" d="M-35 1513l223 295h164l223 -295h-135l-170 222l-170 -222h-135zM197 0v1450h147v-1450h-147z" />
<glyph unicode="&#xcf;" horiz-adv-x="540" d="M-31 1683q0 41 30 73t75 32t74.5 -32t29.5 -73t-29.5 -72.5t-74.5 -31.5t-75 31.5t-30 72.5zM197 0v1450h147v-1450h-147zM362 1683q0 41 30 73t75 32t74.5 -32t29.5 -73t-29.5 -72.5t-74.5 -31.5t-75 31.5t-30 72.5z" />
<glyph unicode="&#xd0;" horiz-adv-x="1517" d="M27 711v110h149v629h481q139 0 272.5 -46t244 -133t178 -229.5t67.5 -316.5t-67.5 -316.5t-178 -229.5t-243.5 -133t-273 -46h-481v711h-149zM324 135h286q160 0 287 49t205 133t118 188.5t40 219.5t-40 219.5t-118 188.5t-205 133t-287 49h-286v-494h528v-110h-528v-576 z" />
<glyph unicode="&#xd1;" horiz-adv-x="1593" d="M197 0v1450h184l864 -1229h4v1229h148v-1450h-185l-864 1241h-4v-1241h-147zM465 1538q37 213 188 213q55 0 150 -47q102 -47 137 -47q76 0 100 102h88q-37 -213 -188 -213q-47 0 -149 47q-90 47 -138 47q-75 0 -100 -102h-88z" />
<glyph unicode="&#xd2;" horiz-adv-x="1708" d="M98 725q0 330 215 546t541 216t541 -216t215 -546t-215 -546t-541 -216t-541 216t-215 546zM258 725q0 -260 163 -443.5t433 -183.5t433 183.5t163 443.5t-163 443.5t-433 183.5t-433 -183.5t-163 -443.5zM588 1808h186l205 -295h-121z" />
<glyph unicode="&#xd3;" horiz-adv-x="1708" d="M98 725q0 330 215 546t541 216t541 -216t215 -546t-215 -546t-541 -216t-541 216t-215 546zM258 725q0 -260 163 -443.5t433 -183.5t433 183.5t163 443.5t-163 443.5t-433 183.5t-433 -183.5t-163 -443.5zM729 1513l205 295h186l-270 -295h-121z" />
<glyph unicode="&#xd4;" horiz-adv-x="1708" d="M98 725q0 330 215 546t541 216t541 -216t215 -546t-215 -546t-541 -216t-541 216t-215 546zM258 725q0 -260 163 -443.5t433 -183.5t433 183.5t163 443.5t-163 443.5t-433 183.5t-433 -183.5t-163 -443.5zM549 1513l223 295h164l223 -295h-135l-170 222l-170 -222h-135z " />
<glyph unicode="&#xd5;" horiz-adv-x="1708" d="M98 725q0 330 215 546t541 216t541 -216t215 -546t-215 -546t-541 -216t-541 216t-215 546zM258 725q0 -260 163 -443.5t433 -183.5t433 183.5t163 443.5t-163 443.5t-433 183.5t-433 -183.5t-163 -443.5zM522 1538q37 213 189 213q55 0 149 -47q102 -47 137 -47 q76 0 101 102h88q-37 -213 -189 -213q-47 0 -149 47q-90 47 -137 47q-76 0 -101 -102h-88z" />
<glyph unicode="&#xd6;" horiz-adv-x="1708" d="M98 725q0 330 215 546t541 216t541 -216t215 -546t-215 -546t-541 -216t-541 216t-215 546zM258 725q0 -260 163 -443.5t433 -183.5t433 183.5t163 443.5t-163 443.5t-433 183.5t-433 -183.5t-163 -443.5zM553 1683q0 41 29.5 73t74.5 32t75 -32t30 -73t-30 -72.5 t-75 -31.5t-74.5 31.5t-29.5 72.5zM946 1683q0 41 30 73t75 32t74.5 -32t29.5 -73t-29.5 -72.5t-74.5 -31.5t-75 31.5t-30 72.5z" />
<glyph unicode="&#xd7;" horiz-adv-x="1363" d="M270 295l326 326l-326 327l86 86l326 -325l324 325l88 -86l-326 -327l326 -326l-88 -88l-324 325l-326 -325z" />
<glyph unicode="&#xd8;" horiz-adv-x="1708" d="M98 725q0 330 215 546t541 216q279 0 483 -166l156 166l76 -70l-156 -168q197 -209 197 -524q0 -330 -215 -546t-541 -216q-283 0 -483 166l-156 -166l-76 70l156 168q-197 209 -197 524zM258 725q0 -244 139 -414l842 903q-158 137 -385 138q-270 0 -433 -183.5 t-163 -443.5zM469 236q158 -137 385 -138q270 0 433 183.5t163 443.5q0 240 -139 414z" />
<glyph unicode="&#xd9;" horiz-adv-x="1404" d="M172 541v909h147v-893q0 -119 30 -208t72 -135t99.5 -73.5t98 -35t83.5 -7.5t84 7.5t98.5 35t99.5 73.5t71.5 135t29.5 208v893h148v-909q0 -80 -13.5 -154t-49 -153.5t-93 -137t-154 -95.5t-221 -38t-221 38t-154 95.5t-93 137t-49 153.5t-13.5 154zM436 1808h187 l204 -295h-120z" />
<glyph unicode="&#xda;" horiz-adv-x="1404" d="M172 541v909h147v-893q0 -119 30 -208t72 -135t99.5 -73.5t98 -35t83.5 -7.5t84 7.5t98.5 35t99.5 73.5t71.5 135t29.5 208v893h148v-909q0 -80 -13.5 -154t-49 -153.5t-93 -137t-154 -95.5t-221 -38t-221 38t-154 95.5t-93 137t-49 153.5t-13.5 154zM578 1513l204 295 h187l-271 -295h-120z" />
<glyph unicode="&#xdb;" horiz-adv-x="1404" d="M172 541v909h147v-893q0 -119 30 -208t72 -135t99.5 -73.5t98 -35t83.5 -7.5t84 7.5t98.5 35t99.5 73.5t71.5 135t29.5 208v893h148v-909q0 -80 -13.5 -154t-49 -153.5t-93 -137t-154 -95.5t-221 -38t-221 38t-154 95.5t-93 137t-49 153.5t-13.5 154zM397 1513l224 295 h163l224 -295h-136l-170 222l-170 -222h-135z" />
<glyph unicode="&#xdc;" horiz-adv-x="1404" d="M172 541v909h147v-893q0 -119 30 -208t72 -135t99.5 -73.5t98 -35t83.5 -7.5t84 7.5t98.5 35t99.5 73.5t71.5 135t29.5 208v893h148v-909q0 -80 -13.5 -154t-49 -153.5t-93 -137t-154 -95.5t-221 -38t-221 38t-154 95.5t-93 137t-49 153.5t-13.5 154zM401 1683 q0 41 30 73t75 32t74.5 -32t29.5 -73t-29.5 -72.5t-74.5 -31.5t-75 31.5t-30 72.5zM795 1683q0 41 29.5 73t74.5 32t75 -32t30 -73t-30 -72.5t-75 -31.5t-74.5 31.5t-29.5 72.5z" />
<glyph unicode="&#xdd;" horiz-adv-x="1175" d="M-29 1450h185l432 -684l432 684h184l-542 -825v-625h-148v625zM463 1513l205 295h186l-270 -295h-121z" />
<glyph unicode="&#xde;" horiz-adv-x="1175" d="M197 0v1450h147v-320h328q188 0 306 -99t118 -288q0 -190 -117 -289.5t-307 -99.5h-328v-354h-147zM344 489h238q55 0 97 3.5t93 18.5t85 41t56.5 75t22.5 116.5t-22.5 115.5t-56.5 73.5t-85 41t-93 18.5t-97 3h-238v-506z" />
<glyph unicode="&#xdf;" horiz-adv-x="1214" d="M172 0v1114q0 203 101.5 331t330.5 128q170 0 280.5 -97.5t110.5 -265.5q0 -240 -237 -325v-4q172 -14 261 -134t89 -290q0 -217 -134 -349.5t-351 -132.5q-68 0 -119 17v117q41 -10 98 -11q164 0 261.5 96.5t97.5 264.5q0 358 -412 358v123q135 0 217 60.5t82 191.5 q0 119 -71.5 188.5t-180.5 69.5q-150 0 -219.5 -97.5t-69.5 -226.5v-1126h-135z" />
<glyph unicode="&#xe0;" horiz-adv-x="1062" d="M98 256q0 76 27 133t78 92t106.5 57.5t130 33t129.5 13.5t125 3h68v24q0 248 -246 248q-168 0 -293 -112l-82 96q135 139 406 139q152 0 251 -87t99 -253v-428q0 -113 16 -215h-131q-12 70 -12 156h-4q-111 -180 -338 -181q-137 0 -233.5 74t-96.5 207zM246 274 q0 -88 66.5 -132t158.5 -44q141 0 216 87t75 223v69h-70q-446 0 -446 -203zM266 1450h187l204 -295h-120z" />
<glyph unicode="&#xe1;" horiz-adv-x="1062" d="M98 256q0 76 27 133t78 92t106.5 57.5t130 33t129.5 13.5t125 3h68v24q0 248 -246 248q-168 0 -293 -112l-82 96q135 139 406 139q152 0 251 -87t99 -253v-428q0 -113 16 -215h-131q-12 70 -12 156h-4q-111 -180 -338 -181q-137 0 -233.5 74t-96.5 207zM246 274 q0 -88 66.5 -132t158.5 -44q141 0 216 87t75 223v69h-70q-446 0 -446 -203zM408 1155l204 295h187l-271 -295h-120z" />
<glyph unicode="&#xe2;" horiz-adv-x="1062" d="M98 256q0 76 27 133t78 92t106.5 57.5t130 33t129.5 13.5t125 3h68v24q0 248 -246 248q-168 0 -293 -112l-82 96q135 139 406 139q152 0 251 -87t99 -253v-428q0 -113 16 -215h-131q-12 70 -12 156h-4q-111 -180 -338 -181q-137 0 -233.5 74t-96.5 207zM227 1155l224 295 h163l224 -295h-136l-170 221l-170 -221h-135zM246 274q0 -88 66.5 -132t158.5 -44q141 0 216 87t75 223v69h-70q-446 0 -446 -203z" />
<glyph unicode="&#xe3;" horiz-adv-x="1062" d="M98 256q0 76 27 133t78 92t106.5 57.5t130 33t129.5 13.5t125 3h68v24q0 248 -246 248q-168 0 -293 -112l-82 96q135 139 406 139q152 0 251 -87t99 -253v-428q0 -113 16 -215h-131q-12 70 -12 156h-4q-111 -180 -338 -181q-137 0 -233.5 74t-96.5 207zM201 1180 q37 213 188 213q55 0 150 -47q102 -47 137 -48q76 0 100 103h88q-37 -213 -188 -213q-47 0 -150 47q-90 47 -137 47q-75 0 -100 -102h-88zM246 274q0 -88 66.5 -132t158.5 -44q141 0 216 87t75 223v69h-70q-446 0 -446 -203z" />
<glyph unicode="&#xe4;" horiz-adv-x="1062" d="M98 256q0 76 27 133t78 92t106.5 57.5t130 33t129.5 13.5t125 3h68v24q0 248 -246 248q-168 0 -293 -112l-82 96q135 139 406 139q152 0 251 -87t99 -253v-428q0 -113 16 -215h-131q-12 70 -12 156h-4q-111 -180 -338 -181q-137 0 -233.5 74t-96.5 207zM231 1325 q0 41 30 73t75 32t74.5 -32t29.5 -73t-29.5 -72.5t-74.5 -31.5t-75 31.5t-30 72.5zM246 274q0 -88 66.5 -132t158.5 -44q141 0 216 87t75 223v69h-70q-446 0 -446 -203zM625 1325q0 41 29.5 73t74.5 32t75 -32t30 -73t-30 -72.5t-75 -31.5t-74.5 31.5t-29.5 72.5z" />
<glyph unicode="&#xe5;" horiz-adv-x="1062" d="M98 256q0 76 27 133t78 92t106.5 57.5t130 33t129.5 13.5t125 3h68v24q0 248 -246 248q-168 0 -293 -112l-82 96q135 139 406 139q152 0 251 -87t99 -253v-428q0 -113 16 -215h-131q-12 70 -12 156h-4q-111 -180 -338 -181q-137 0 -233.5 74t-96.5 207zM246 274 q0 -88 66.5 -132t158.5 -44q141 0 216 87t75 223v69h-70q-446 0 -446 -203zM336 1331q0 82 58.5 138.5t138 56.5t138 -56.5t58.5 -138.5t-58.5 -138t-138 -56t-138 56t-58.5 138zM410 1331q0 -51 35.5 -86t87 -35t87 35t35.5 86t-35.5 86t-87 35t-87 -35t-35.5 -86z" />
<glyph unicode="&#xe6;" horiz-adv-x="1744" d="M98 256q0 297 467 297h228v59q-2 72 -30 124t-69 77t-77.5 36t-69.5 11q-170 0 -291 -115l-84 99q150 139 381 139q109 0 196 -52t121 -132q45 84 141.5 134t200.5 50q205 -2 320 -135t115 -344v-62h-719v-18q0 -135 76.5 -230.5t203.5 -95.5q113 0 179.5 41t119.5 115 l107 -84q-154 -195 -402 -195q-115 0 -212 56.5t-146 167.5q-72 -119 -172 -171.5t-254 -52.5q-137 0 -233.5 74t-96.5 207zM246 274q0 -88 66.5 -132t158.5 -44q145 0 233.5 91.5t88.5 234.5v18h-281q-104 0 -185 -40t-81 -128zM928 553h583q0 135 -80.5 221t-213.5 86 q-123 0 -206 -88t-83 -219z" />
<glyph unicode="&#xe7;" horiz-adv-x="987" d="M98 479q0 221 138.5 363.5t369.5 140.5q211 -4 350 -166l-110 -84q-35 55 -99.5 91t-140.5 36q-164 2 -262 -105.5t-98 -275.5t98 -275.5t262 -105.5q76 0 140.5 36t99.5 91l110 -84q-139 -162 -350 -166q-12 0 -14 2l-76 -100l4 -2q39 14 74 14q66 0 112 -42t46 -111 q0 -88 -71 -134t-165 -46q-106 0 -199 49l33 73q72 -37 152 -36q51 0 89 22.5t38 69.5q0 29 -22.5 55.5t-78.5 26.5q-45 0 -94 -23l-37 35l115 156q-190 27 -302 163t-112 332z" />
<glyph unicode="&#xe8;" d="M98 479q0 215 139.5 359.5t344.5 144.5q211 -2 334.5 -138t123.5 -341v-62h-798q12 -145 111.5 -244.5t240.5 -99.5q100 0 182 48.5t125 117.5l105 -86q-160 -203 -412 -203q-213 0 -354.5 143.5t-141.5 360.5zM246 553h647q0 139 -84 223t-227 84q-131 0 -233.5 -94 t-102.5 -213zM303 1450h186l205 -295h-121z" />
<glyph unicode="&#xe9;" d="M98 479q0 215 139.5 359.5t344.5 144.5q211 -2 334.5 -138t123.5 -341v-62h-798q12 -145 111.5 -244.5t240.5 -99.5q100 0 182 48.5t125 117.5l105 -86q-160 -203 -412 -203q-213 0 -354.5 143.5t-141.5 360.5zM246 553h647q0 139 -84 223t-227 84q-131 0 -233.5 -94 t-102.5 -213zM444 1155l205 295h187l-271 -295h-121z" />
<glyph unicode="&#xea;" d="M98 479q0 215 139.5 359.5t344.5 144.5q211 -2 334.5 -138t123.5 -341v-62h-798q12 -145 111.5 -244.5t240.5 -99.5q100 0 182 48.5t125 117.5l105 -86q-160 -203 -412 -203q-213 0 -354.5 143.5t-141.5 360.5zM246 553h647q0 139 -84 223t-227 84q-131 0 -233.5 -94 t-102.5 -213zM264 1155l223 295h164l223 -295h-135l-170 221l-170 -221h-135z" />
<glyph unicode="&#xeb;" d="M98 479q0 215 139.5 359.5t344.5 144.5q211 -2 334.5 -138t123.5 -341v-62h-798q12 -145 111.5 -244.5t240.5 -99.5q100 0 182 48.5t125 117.5l105 -86q-160 -203 -412 -203q-213 0 -354.5 143.5t-141.5 360.5zM246 553h647q0 139 -84 223t-227 84q-131 0 -233.5 -94 t-102.5 -213zM268 1325q0 41 30 73t75 32t74.5 -32t29.5 -73t-29.5 -72.5t-74.5 -31.5t-75 31.5t-30 72.5zM662 1325q0 41 29.5 73t74.5 32t74.5 -32t29.5 -73t-29.5 -72.5t-74.5 -31.5t-74.5 31.5t-29.5 72.5z" />
<glyph unicode="&#xec;" horiz-adv-x="491" d="M-20 1450h186l205 -295h-121zM178 0v958h135v-958h-135z" />
<glyph unicode="&#xed;" horiz-adv-x="491" d="M121 1155l205 295h186l-270 -295h-121zM178 0v958h135v-958h-135z" />
<glyph unicode="&#xee;" horiz-adv-x="491" d="M-59 1155l223 295h164l223 -295h-135l-170 221l-170 -221h-135zM178 0v958h135v-958h-135z" />
<glyph unicode="&#xef;" horiz-adv-x="491" d="M-55 1325q0 41 29.5 73t74.5 32t75 -32t30 -73t-30 -72.5t-75 -31.5t-74.5 31.5t-29.5 72.5zM178 0v958h135v-958h-135zM338 1325q0 41 29.5 73t74.5 32t75 -32t30 -73t-30 -72.5t-75 -31.5t-74.5 31.5t-29.5 72.5z" />
<glyph unicode="&#xf0;" horiz-adv-x="1214" d="M98 479q0 217 143.5 360.5t364.5 143.5q164 0 307 -119l5 4q-129 244 -326 418l-225 -117l-74 74l221 115q-111 102 -195 162l123 75q141 -115 199 -170l209 109l82 -72l-211 -110q197 -197 297 -397.5t98 -434.5q0 -100 -25.5 -190t-81 -173t-158.5 -132.5t-245 -49.5 q-221 0 -364.5 143.5t-143.5 360.5zM246 479q0 -164 99 -272.5t261 -108.5q164 0 263.5 108.5t99.5 272.5t-99.5 272.5t-263.5 108.5q-162 0 -261 -108.5t-99 -272.5z" />
<glyph unicode="&#xf1;" d="M137 958h139q6 -51 7 -153h4q45 78 135 128t186 50q180 0 270.5 -97.5t90.5 -277.5v-608h-135v530q0 168 -57.5 249t-203.5 81q-16 0 -41.5 -4t-72.5 -25.5t-83 -57.5t-64.5 -109.5t-28.5 -171.5v-492h-136v748q0 36 -10 210zM238 1180q37 213 188 213q55 0 149 -47 q102 -47 138 -48q76 0 100 103h88q-37 -213 -188 -213q-47 0 -150 47q-90 47 -137 47q-75 0 -100 -102h-88z" />
<glyph unicode="&#xf2;" horiz-adv-x="1214" d="M98 479q0 217 143.5 360.5t364.5 143.5q223 0 366.5 -143.5t143.5 -360.5t-143.5 -360.5t-366.5 -143.5q-221 0 -364.5 143.5t-143.5 360.5zM246 479q0 -164 99 -272.5t261 -108.5q164 0 263.5 108.5t99.5 272.5t-99.5 272.5t-263.5 108.5q-162 0 -261 -108.5t-99 -272.5 zM342 1450h186l205 -295h-121z" />
<glyph unicode="&#xf3;" horiz-adv-x="1214" d="M98 479q0 217 143.5 360.5t364.5 143.5q223 0 366.5 -143.5t143.5 -360.5t-143.5 -360.5t-366.5 -143.5q-221 0 -364.5 143.5t-143.5 360.5zM246 479q0 -164 99 -272.5t261 -108.5q164 0 263.5 108.5t99.5 272.5t-99.5 272.5t-263.5 108.5q-162 0 -261 -108.5t-99 -272.5 zM483 1155l205 295h186l-270 -295h-121z" />
<glyph unicode="&#xf4;" horiz-adv-x="1214" d="M98 479q0 217 143.5 360.5t364.5 143.5q223 0 366.5 -143.5t143.5 -360.5t-143.5 -360.5t-366.5 -143.5q-221 0 -364.5 143.5t-143.5 360.5zM246 479q0 -164 99 -272.5t261 -108.5q164 0 263.5 108.5t99.5 272.5t-99.5 272.5t-263.5 108.5q-162 0 -261 -108.5t-99 -272.5 zM303 1155l223 295h164l223 -295h-135l-170 221l-170 -221h-135z" />
<glyph unicode="&#xf5;" horiz-adv-x="1214" d="M98 479q0 217 143.5 360.5t364.5 143.5q223 0 366.5 -143.5t143.5 -360.5t-143.5 -360.5t-366.5 -143.5q-221 0 -364.5 143.5t-143.5 360.5zM246 479q0 -164 99 -272.5t261 -108.5q164 0 263.5 108.5t99.5 272.5t-99.5 272.5t-263.5 108.5q-162 0 -261 -108.5t-99 -272.5 zM276 1180q37 213 189 213q55 0 149 -47q102 -47 138 -48q76 0 100 103h88q-37 -213 -188 -213q-47 0 -150 47q-90 47 -137 47q-75 0 -100 -102h-89z" />
<glyph unicode="&#xf6;" horiz-adv-x="1214" d="M98 479q0 217 143.5 360.5t364.5 143.5q223 0 366.5 -143.5t143.5 -360.5t-143.5 -360.5t-366.5 -143.5q-221 0 -364.5 143.5t-143.5 360.5zM246 479q0 -164 99 -272.5t261 -108.5q164 0 263.5 108.5t99.5 272.5t-99.5 272.5t-263.5 108.5q-162 0 -261 -108.5t-99 -272.5 zM307 1325q0 41 30 73t75 32t74.5 -32t29.5 -73t-29.5 -72.5t-74.5 -31.5t-75 31.5t-30 72.5zM700 1325q0 41 30 73t75 32t74.5 -32t29.5 -73t-29.5 -72.5t-74.5 -31.5t-75 31.5t-30 72.5z" />
<glyph unicode="&#xf7;" horiz-adv-x="1363" d="M160 559v123h1044v-123h-1044zM571 289q0 45 32 77.5t79 32.5t79 -32.5t32 -77.5t-32 -78t-79 -33t-79 33t-32 78zM571 952q0 45 32 78t79 33t79 -33t32 -78t-32 -77.5t-79 -32.5t-79 32.5t-32 77.5z" />
<glyph unicode="&#xf8;" horiz-adv-x="1214" d="M82 6l135 139q-119 137 -119 334q0 217 143.5 360.5t364.5 143.5q186 0 326 -106l135 139l66 -64l-136 -139q119 -135 119 -334q0 -217 -143.5 -360.5t-366.5 -143.5q-188 0 -321 107l-138 -139zM246 479q-1 -139 69 -233l523 534q-92 80 -232 80q-162 0 -261 -108.5 t-99 -272.5zM377 176q94 -78 229 -78q164 0 263.5 108.5t99.5 272.5q0 134 -70 234z" />
<glyph unicode="&#xf9;" d="M147 350v608h136v-530q0 -168 57 -249t203 -81q16 0 41.5 4t73 26t83 57.5t64.5 109.5t29 172v491h135v-747q0 -37 10 -211h-139q-6 51 -6 154h-5q-45 -78 -135 -128.5t-186 -50.5q-180 0 -270.5 97.5t-90.5 277.5zM303 1450h186l205 -295h-121z" />
<glyph unicode="&#xfa;" d="M147 350v608h136v-530q0 -168 57 -249t203 -81q16 0 41.5 4t73 26t83 57.5t64.5 109.5t29 172v491h135v-747q0 -37 10 -211h-139q-6 51 -6 154h-5q-45 -78 -135 -128.5t-186 -50.5q-180 0 -270.5 97.5t-90.5 277.5zM444 1155l205 295h187l-271 -295h-121z" />
<glyph unicode="&#xfb;" d="M147 350v608h136v-530q0 -168 57 -249t203 -81q16 0 41.5 4t73 26t83 57.5t64.5 109.5t29 172v491h135v-747q0 -37 10 -211h-139q-6 51 -6 154h-5q-45 -78 -135 -128.5t-186 -50.5q-180 0 -270.5 97.5t-90.5 277.5zM264 1155l223 295h164l223 -295h-135l-170 221 l-170 -221h-135z" />
<glyph unicode="&#xfc;" d="M147 350v608h136v-530q0 -168 57 -249t203 -81q16 0 41.5 4t73 26t83 57.5t64.5 109.5t29 172v491h135v-747q0 -37 10 -211h-139q-6 51 -6 154h-5q-45 -78 -135 -128.5t-186 -50.5q-180 0 -270.5 97.5t-90.5 277.5zM268 1325q0 41 30 73t75 32t74.5 -32t29.5 -73 t-29.5 -72.5t-74.5 -31.5t-75 31.5t-30 72.5zM662 1325q0 41 29.5 73t74.5 32t74.5 -32t29.5 -73t-29.5 -72.5t-74.5 -31.5t-74.5 31.5t-29.5 72.5z" />
<glyph unicode="&#xfd;" horiz-adv-x="987" d="M33 958h170l301 -792l293 792h164l-480 -1208q-47 -121 -115.5 -181.5t-185.5 -60.5q-78 0 -125 15l15 131q43 -23 102 -23q68 0 110 43t74 129l70 185zM369 1155l204 295h187l-271 -295h-120z" />
<glyph unicode="&#xfe;" horiz-adv-x="1251" d="M147 -467v2015h136v-768h4q147 203 372 203q223 0 366.5 -143.5t143.5 -360.5t-143 -360.5t-367 -143.5q-104 0 -207.5 47.5t-164.5 137.5h-4v-627h-136zM276 479q0 -164 105.5 -272.5t277.5 -108.5q164 0 263.5 108.5t99.5 272.5t-99.5 272.5t-263.5 108.5 q-166 0 -274.5 -109.5t-108.5 -271.5z" />
<glyph unicode="&#xff;" horiz-adv-x="987" d="M33 958h170l301 -792l293 792h164l-480 -1208q-47 -121 -115.5 -181.5t-185.5 -60.5q-78 0 -125 15l15 131q43 -23 102 -23q68 0 110 43t74 129l70 185zM193 1325q0 41 29.5 73t74.5 32t74.5 -32t29.5 -73t-29.5 -72.5t-74.5 -31.5t-74.5 31.5t-29.5 72.5zM586 1325 q0 41 29.5 73t74.5 32t75 -32t30 -73t-30 -72.5t-75 -31.5t-74.5 31.5t-29.5 72.5z" />
<glyph unicode="&#x152;" horiz-adv-x="1933" d="M129 727q0 176 68.5 317.5t181.5 228.5t252 132t289 45h895v-135h-603v-494h578v-135h-578v-551h627v-135h-915q-207 0 -368 68.5t-250 179t-133 232.5t-44 247zM289 721q0 -59 13 -127t56 -153t108.5 -150.5t183.5 -110.5t270 -45h145v1180h-117q-293 0 -476 -155.5 t-183 -438.5z" />
<glyph unicode="&#x153;" horiz-adv-x="1888" d="M98 479q0 215 139.5 359.5t346.5 144.5q279 0 405 -215q72 109 158 162t209 53q205 -2 319.5 -135t114.5 -344v-62h-719v-18q0 -135 77 -230.5t204 -95.5q113 0 179 41t120 115l106 -84q-154 -195 -401 -195q-121 0 -219.5 55.5t-153.5 162.5q-74 -109 -185.5 -163.5 t-213.5 -54.5q-217 0 -351.5 142.5t-134.5 361.5zM246 479q0 -164 95 -272.5t243 -108.5q160 0 250 109.5t90 271.5t-90.5 271.5t-249.5 109.5q-147 0 -242.5 -108.5t-95.5 -272.5zM1071 553h584q0 135 -81 221t-214 86q-123 0 -206 -88t-83 -219z" />
<glyph unicode="&#x178;" horiz-adv-x="1175" d="M-29 1450h185l432 -684l432 684h184l-542 -825v-625h-148v625zM287 1683q0 41 29.5 73t74.5 32t75 -32t30 -73t-30 -72.5t-75 -31.5t-74.5 31.5t-29.5 72.5zM680 1683q0 41 29.5 73t74.5 32t75 -32t30 -73t-30 -72.5t-75 -31.5t-74.5 31.5t-29.5 72.5z" />
<glyph unicode="&#x2c6;" horiz-adv-x="491" d="M-59 1155l223 295h164l223 -295h-135l-170 221l-170 -221h-135z" />
<glyph unicode="&#x2dc;" horiz-adv-x="491" d="M-86 1180q37 213 188 213q55 0 150 -47q102 -47 137 -48q76 0 100 103h89q-37 -213 -189 -213q-47 0 -149 47q-90 47 -138 47q-75 0 -100 -102h-88z" />
<glyph unicode="&#x2000;" horiz-adv-x="942" />
<glyph unicode="&#x2001;" horiz-adv-x="1884" />
<glyph unicode="&#x2002;" horiz-adv-x="942" />
<glyph unicode="&#x2003;" horiz-adv-x="1884" />
<glyph unicode="&#x2004;" horiz-adv-x="628" />
<glyph unicode="&#x2005;" horiz-adv-x="471" />
<glyph unicode="&#x2006;" horiz-adv-x="314" />
<glyph unicode="&#x2007;" horiz-adv-x="314" />
<glyph unicode="&#x2008;" horiz-adv-x="235" />
<glyph unicode="&#x2009;" horiz-adv-x="376" />
<glyph unicode="&#x200a;" horiz-adv-x="104" />
<glyph unicode="&#x2010;" horiz-adv-x="681" d="M78 424v135h526v-135h-526z" />
<glyph unicode="&#x2011;" horiz-adv-x="681" d="M78 424v135h526v-135h-526z" />
<glyph unicode="&#x2012;" horiz-adv-x="681" d="M78 424v135h526v-135h-526z" />
<glyph unicode="&#x2013;" horiz-adv-x="1024" d="M0 424v135h1024v-135h-1024z" />
<glyph unicode="&#x2014;" horiz-adv-x="2048" d="M0 424v135h2048v-135h-2048z" />
<glyph unicode="&#x2018;" horiz-adv-x="532" d="M115 969l166 481h137l-137 -481h-166z" />
<glyph unicode="&#x2019;" horiz-adv-x="532" d="M115 969l137 481h166l-166 -481h-137z" />
<glyph unicode="&#x201a;" horiz-adv-x="532" d="M115 -287l137 482h166l-166 -482h-137z" />
<glyph unicode="&#x201c;" horiz-adv-x="1062" d="M195 969l165 481h138l-138 -481h-165zM565 969l166 481h137l-137 -481h-166z" />
<glyph unicode="&#x201d;" horiz-adv-x="1062" d="M195 969l137 481h166l-166 -481h-137zM565 969l137 481h166l-166 -481h-137z" />
<glyph unicode="&#x201e;" horiz-adv-x="1062" d="M195 -287l137 482h166l-166 -482h-137zM565 -287l137 482h166l-166 -482h-137z" />
<glyph unicode="&#x2022;" horiz-adv-x="1024" d="M150 725q0 152 105 257t257 105t257 -105t105 -257t-105 -257.5t-257 -105.5t-257 105.5t-105 257.5z" />
<glyph unicode="&#x2026;" horiz-adv-x="2048" d="M231 98q0 45 32 78t79 33t79 -33t32 -78t-32 -77.5t-79 -32.5t-79 32.5t-32 77.5zM913 98q0 45 32 78t79 33t79 -33t32 -78t-32 -77.5t-79 -32.5t-79 32.5t-32 77.5zM1595 98q0 45 32 78t79 33t79 -33t32 -78t-32 -77.5t-79 -32.5t-79 32.5t-32 77.5z" />
<glyph unicode="&#x202f;" horiz-adv-x="376" />
<glyph unicode="&#x2039;" horiz-adv-x="645" d="M121 492l287 428l96 -68l-236 -360l236 -361l-96 -68z" />
<glyph unicode="&#x203a;" horiz-adv-x="645" d="M141 131l236 361l-236 360l97 68l286 -428l-286 -429z" />
<glyph unicode="&#x205f;" horiz-adv-x="471" />
<glyph unicode="&#x2122;" horiz-adv-x="2048" d="M147 1339v111h674v-111h-272v-733h-123v733h-279zM997 606v844h191l264 -647l264 647h185v-844h-123v709h-4l-285 -709h-80l-285 709h-4v-709h-123z" />
<glyph unicode="&#xe000;" horiz-adv-x="962" d="M0 0v963h963v-963h-963z" />
<glyph unicode="&#xfb01;" horiz-adv-x="1099" d="M29 836v122h202v263q0 352 322 352q49 0 117 -14l-25 -123q-57 14 -104 14q-102 0 -138 -62.5t-36 -183.5v-246h227v-122h-227v-836h-136v836h-202zM756 1327q0 41 29.5 69.5t68.5 28.5t68.5 -28.5t29.5 -69.5t-29.5 -69.5t-68.5 -28.5t-68.5 28.5t-29.5 69.5zM786 0v958 h136v-958h-136z" />
<glyph unicode="&#xfb02;" horiz-adv-x="1099" d="M29 836v122h202v263q0 352 322 352q49 0 117 -14l-25 -123q-57 14 -104 14q-102 0 -138 -62.5t-36 -183.5v-246h227v-122h-227v-836h-136v836h-202zM786 0v1548h136v-1548h-136z" />
</font>
</defs>
</svg>
